# xmcd
#
# Track frame offsets:
#        150
#        20140
#        37383
#        56035
#        70737
#        91104
#        105252
#        119846
#        137503
#        158168
#        172582
#        185859
#        204648
#        220095
#        234690
#        252394
#        271158
#        290747
#
# Disc length: 4071 seconds
#
# Revision: 1
# Processed by: cddbd v1.5.2PL0 Copyright (c) Steve Scherf et al.
# Submitted via: jack 3.1.1
#
DISCID=110fe512
DTITLE=Son Volt - Live at the Bottom Line (Trace Bonus CD)
DYEAR=2015
DGENRE=Country Alt
TTITLE0=Route
TTITLE1=Loose String
TTITLE2=Catching On
TTITLE3=Live Free
TTITLE4=Anodyne
TTITLE5=Windfall
TTITLE6=Slate
TTITLE7=Out Of The Picture
TTITLE8=Tear Stained Eye
TTITLE9=True To Life
TTITLE10=Cemetery Savior
TTITLE11=Ten Second News
TTITLE12=Fifteen Keys
TTITLE13=Drown
TTITLE14=Looking For A Way Out
TTITLE15=Chickamauga
TTITLE16=Too Early
TTITLE17=Looking At The World Through A Windshield
EXTD=
EXTT0=
EXTT1=
EXTT2=
EXTT3=
EXTT4=
EXTT5=
EXTT6=
EXTT7=
EXTT8=
EXTT9=
EXTT10=
EXTT11=
EXTT12=
EXTT13=
EXTT14=
EXTT15=
EXTT16=
EXTT17=
PLAYORDER=
